<svg width="49" height="15" viewBox="0 0 49 15" fill="none" xmlns="http://www.w3.org/2000/svg">
<path fill-rule="evenodd" clip-rule="evenodd" d="M47.9777 7.71492C47.9262 7.95334 47.7888 8.16083 47.6 8.30317L41.6995 14.1992C41.5095 14.3791 41.2495 14.489 40.9895 14.489L40.9995 14.5C40.7295 14.5 40.4695 14.3901 40.2895 14.2102C39.8895 13.8205 39.8895 13.181 40.2795 12.7913V12.7813L44.5597 8.50433H1C0.44 8.50433 0 8.05466 0 7.50507C0 6.94548 0.44 6.50581 1 6.50581H44.5805L40.2904 2.21885C39.8904 1.81915 39.8904 1.18961 40.2894 0.799903C40.6794 0.400199 41.3094 0.400199 41.7094 0.798904L47.6995 6.78471L47.7094 6.79447C47.9604 7.03893 48.0499 7.39108 47.9777 7.71492Z" fill="#D0549A"/>
</svg>
